<svg xmlns="http://www.w3.org/2000/svg" viewBox="2327 12237 64 64">
  <defs>
    <style>
      .cls-1 {
        fill: #b3b6ba;
      }
    </style>
  </defs>
  <g id="clipboard3" transform="translate(2327 12237)">
    <path id="Path_492" data-name="Path 492" class="cls-1" d="M30.5,0H33.39A32.173,32.173,0,0,1,64,30.515v2.83A32.334,32.334,0,0,1,52.54,56.53,32.575,32.575,0,0,1,33.475,64H30.63A32.172,32.172,0,0,1,0,33.505V30.6A32.136,32.136,0,0,1,30.5,0m-3.28,2.87A29.519,29.519,0,1,0,45.01,5.5,29.549,29.549,0,0,0,27.215,2.87Z"/>
    <path id="Path_493" data-name="Path 493" class="cls-1" d="M24.661,31.237c-.07-.74.265-1.775,1.2-1.68,7.825-.09,15.66.165,23.485-.025.82.01,2.02-.18,2.34.83.14,1.43.045,2.87.065,4.305-.82-.005-1.635-.01-2.455-.01,0-.89-.005-1.78-.01-2.67-7.38.125-14.76.02-22.145,0,0,9.845-.015,19.695.01,29.54,7.38.005,14.765-.01,22.145,0-.055-3.28,0-6.555,0-9.835h2.45c0,3.68.035,7.365-.02,11.05a1.231,1.231,0,0,1-1.445,1.235c-7.985.025-15.97.01-23.955.01a2.688,2.688,0,0,1-1.64-.56C24.641,52.7,24.691,41.967,24.661,31.237Z" transform="translate(-12.326 -14.762)"/>
    <path id="Path_494" data-name="Path 494" class="cls-1" d="M69.308,34.784a1.335,1.335,0,0,1,2.035.4,1.592,1.592,0,0,1-.85,1.785c-7.515,5.855-15.055,11.68-22.57,17.545-2.72-3.145-5.45-6.285-8.125-9.47-1.19-1.035.69-2.925,1.71-1.715,2.31,2.545,4.485,5.22,6.76,7.805C55.288,45.7,62.273,40.209,69.308,34.784Z" transform="translate(-19.708 -17.229)"/>
  </g>
</svg>
