<svg xmlns="http://www.w3.org/2000/svg" viewBox="2251 12234 40.533 64">
  <defs>
    <style>
      .cls-1 {
        fill: #b3b6ba;
      }
    </style>
  </defs>
  <g id="Group_13" data-name="Group 13" transform="translate(2033 11897)">
    <path id="Path_484" data-name="Path 484" class="cls-1" d="M52.74,14.341A6.5,6.5,0,0,1,58.354,8c2.039-.091,4.265-.315,6.1.781a6.6,6.6,0,0,1,3.276,5.555c1.471.027,3.092-.213,4.38.666a4.561,4.561,0,0,1,2.029,3.6c1.344.04,2.788-.195,4.028.464A4.328,4.328,0,0,1,80.5,23.119q-.008,22.28-.008,44.563a4.263,4.263,0,0,1-4.231,4.231q-16.015.02-32.029,0a4.272,4.272,0,0,1-4.247-4.247q-.02-22.272-.008-44.55a4.313,4.313,0,0,1,2.33-4.052c1.24-.656,2.679-.424,4.023-.459A4.56,4.56,0,0,1,48.358,15c1.29-.874,2.911-.634,4.382-.661m3.415-3.015C54.71,12.638,54.87,14.7,54.9,16.474c-1.341.008-2.682-.008-4.02,0a2.267,2.267,0,0,0-1.759.621c-.9.89-.562,2.269-.621,3.4a2.152,2.152,0,0,0,2.119,2.367c6.23.024,12.462-.005,18.695.013a2.526,2.526,0,0,0,2.023-.629c.9-.888.57-2.266.626-3.4A2.143,2.143,0,0,0,70.1,16.5c-1.509-.077-3.023-.005-4.532-.029a24.871,24.871,0,0,0-.067-2.855,4.242,4.242,0,0,0-3.937-3.524c-1.845-.056-4.025-.267-5.409,1.232M42.109,23.117V67.411a2.214,2.214,0,0,0,.909,1.989,3.243,3.243,0,0,0,2.013.395c10.407-.021,20.812.013,31.219-.016a2.15,2.15,0,0,0,2.114-2.367V23.117a2.226,2.226,0,0,0-.909-1.989c-.976-.65-2.215-.309-3.314-.389A4.382,4.382,0,0,1,69.857,25q-9.621.02-19.244,0a4.38,4.38,0,0,1-4.287-4.257,20.828,20.828,0,0,0-2.58.061A2.151,2.151,0,0,0,42.109,23.117Z" transform="translate(178.032 329.077)"/>
    <path id="Path_485" data-name="Path 485" class="cls-1" d="M112.682,32.009c1.25-.594,2.125,1.487.834,1.97C112.269,34.579,111.392,32.486,112.682,32.009Z" transform="translate(125.168 311.489)"/>
    <path id="Path_486" data-name="Path 486" class="cls-1" d="M64,104h6.4v6.4H64V104m2.133,2.133v2.133c.712,0,1.421,0,2.133,0q0-1.068,0-2.133Z" transform="translate(160.407 258.612)"/>
    <path id="Path_487" data-name="Path 487" class="cls-1" d="M104,112q8.529,0,17.061,0,0,1.064,0,2.13-8.529,0-17.061,0Z" transform="translate(131.07 252.742)"/>
    <path id="Path_488" data-name="Path 488" class="cls-1" d="M64,144h6.4v6.4H64V144m2.133,2.133v2.133c.712,0,1.421,0,2.133,0q0-1.068,0-2.133Z" transform="translate(160.407 229.275)"/>
    <path id="Path_489" data-name="Path 489" class="cls-1" d="M104,152q8.529,0,17.061,0,0,1.064,0,2.127-8.529,0-17.061,0Z" transform="translate(131.07 223.405)"/>
    <path id="Path_490" data-name="Path 490" class="cls-1" d="M64,184h6.4v6.4H64V184m2.133,2.133v2.133q1.064,0,2.133,0,0-1.068,0-2.133Z" transform="translate(160.407 199.938)"/>
    <path id="Path_491" data-name="Path 491" class="cls-1" d="M104,192h17.061q0,1.068,0,2.13-8.529,0-17.061,0Z" transform="translate(131.07 194.07)"/>
  </g>
</svg>
