<svg xmlns="http://www.w3.org/2000/svg" viewBox="2417 12233 58 64">
  <defs>
    <style>
      .cls-1 {
        fill: #b3b6ba;
      }
    </style>
  </defs>
  <g id="multi-teams_2x-7ba3dbdcb54420558db2af27c290dfc7" data-name="multi-teams@2x-7ba3dbdcb54420558db2af27c290dfc7" transform="translate(2412.02 12227.98)">
    <path id="Path_495" data-name="Path 495" class="cls-1" d="M14.687,6.1A.94.94,0,0,1,16.5,5.654c.213,3.328.01,6.677.087,10.016,2.372.069,4.754-.128,7.117.091.135.149.4.443.531.587.2,2.608.019,5.227.077,7.84,1.193.1,2.479-.213,3.6.309a5.875,5.875,0,0,1,.275,2.347q-.029,7.216-.01,14.427,7.726.016,15.452,0c.072-3.328-.121-6.667.082-9.989.836-1.248,2.575-.448,3.788-.693.029-1.9-.1-3.813.077-5.707.13-.144.4-.437.527-.587,3.025-.213,6.059-.027,9.088-.1.628.064,1.532-.155,1.826.683.174,1.893.048,3.808.072,5.707a25.581,25.581,0,0,1,3.261.117c.763.309.556,1.317.618,2.005q-.022,16.832,0,33.664c0,.821-.082,1.637-.169,2.459a18.369,18.369,0,0,1-2.227.187c-18.051-.027-36.1.005-54.149-.016-.633.091-1.517-.224-1.411-1.109-.082-13.856,0-27.722-.043-41.584.063-.688-.15-1.7.618-2.005a25.506,25.506,0,0,1,3.257-.117c.058-2.613-.121-5.232.077-7.84.135-.149.4-.443.527-.587,1.725-.192,3.46-.053,5.189-.085.048-3.189-.063-6.384.039-9.573M10.793,17.814q-.022,3.192,0,6.389,5.791.016,11.586,0,.022-3.192,0-6.389-5.791-.016-11.586,0M6.927,26.347q-.014,20.256,0,40.522,2.9.024,5.793-.005c.111-2.027-.275-4.149.246-6.112a13.022,13.022,0,0,1,5.392-.1,53.273,53.273,0,0,1,.159,6.213q3.863.016,7.726,0,.014-20.264,0-40.522-9.661-.016-19.317,0m42.514,0q-.007,2.128,0,4.256,3.863.016,7.731,0V26.347q-3.863-.016-7.731,0m-3.861,6.4q-.014,17.056,0,34.117,2.892.032,5.793,0c.029-1.9-.1-3.819.077-5.717l.527-.581a20.6,20.6,0,0,1,4.585,0c.135.144.4.432.531.576.174,1.9.043,3.824.077,5.733h3.861q.014-17.064,0-34.128-7.726-.016-15.452,0M28.187,43.414q-.014,11.728,0,23.456,7.726.016,15.452,0,.014-11.728,0-23.456-7.726-.016-15.452,0M14.663,62.6q-.022,2.136,0,4.272c.638,0,1.276,0,1.913.005q.022-2.144,0-4.272c-.638,0-1.276,0-1.913-.005m38.654.005q-.022,2.128,0,4.267H55.23q.022-2.136,0-4.272C54.592,62.609,53.954,62.609,53.317,62.609Z"/>
    <path id="Path_496" data-name="Path 496" class="cls-1" d="M21.595,33.064a50.354,50.354,0,0,1,6.151-.053c1.039-.117,1.382,1.6.411,2.005a50.353,50.353,0,0,1-6.151.053C20.972,35.187,20.619,33.47,21.595,33.064Z" transform="translate(-8.29 -13.031)"/>
    <path id="Path_497" data-name="Path 497" class="cls-1" d="M13.589,49.072c4.619-.192,9.262-.085,13.886-.053,1.295-.155,1.285,2.2,0,2.059q-6.74.1-13.481,0C12.97,51.195,12.617,49.483,13.589,49.072Z" transform="translate(-4.154 -20.506)"/>
    <path id="Path_498" data-name="Path 498" class="cls-1" d="M13.589,57.072c4.619-.192,9.262-.085,13.886-.053,1.28-.149,1.3,2.213,0,2.059q-6.74.1-13.481,0C12.966,59.19,12.623,57.483,13.589,57.072Z" transform="translate(-4.154 -24.239)"/>
    <path id="Path_499" data-name="Path 499" class="cls-1" d="M93.59,61.071c3.334-.192,6.682-.091,10.021-.053,1.29-.149,1.29,2.2,0,2.059q-4.805.1-9.615,0C92.962,63.188,92.628,61.487,93.59,61.071Z" transform="translate(-45.501 -26.105)"/>
    <path id="Path_500" data-name="Path 500" class="cls-1" d="M13.59,65.072c4.624-.192,9.262-.085,13.891-.053,1.285-.144,1.285,2.2,0,2.059q-6.733.1-13.476,0C12.966,67.195,12.623,65.483,13.59,65.072Z" transform="translate(-4.155 -27.973)"/>
    <path id="Path_501" data-name="Path 501" class="cls-1" d="M93.593,69.071c3.329-.192,6.682-.091,10.021-.053,1.29-.149,1.28,2.2,0,2.059-3.2.069-6.407.069-9.605,0C92.965,71.193,92.617,69.476,93.593,69.071Z" transform="translate(-45.5 -29.838)"/>
    <path id="Path_502" data-name="Path 502" class="cls-1" d="M13.58,73.072c4.619-.192,9.262-.085,13.886-.053,1.285-.144,1.285,2.208,0,2.059-4.025.107-8.054-.005-12.079.048-.8-.091-1.86.256-2.358-.672A1.2,1.2,0,0,1,13.58,73.072Z" transform="translate(-4.14 -31.706)"/>
    <path id="Path_503" data-name="Path 503" class="cls-1" d="M93.586,77.075c3.334-.2,6.687-.1,10.021-.059,1.295-.149,1.29,2.2,0,2.059-3.2.069-6.407.075-9.61-.005C92.972,79.224,92.605,77.432,93.586,77.075Z" transform="translate(-45.497 -33.57)"/>
    <path id="Path_504" data-name="Path 504" class="cls-1" d="M13.586,81.078c4.624-.2,9.262-.085,13.891-.059,1.28-.144,1.29,2.208,0,2.059-4.489.064-8.987.069-13.471,0C12.973,83.222,12.606,81.441,13.586,81.078Z" transform="translate(-4.152 -35.44)"/>
    <path id="Path_505" data-name="Path 505" class="cls-1" d="M57.589,85.069c3.334-.192,6.682-.1,10.021-.053,1.3-.171,1.285,2.219,0,2.059q-4.8.112-9.605,0C56.966,87.192,56.623,85.48,57.589,85.069Z" transform="translate(-26.895 -37.303)"/>
    <path id="Path_506" data-name="Path 506" class="cls-1" d="M93.587,85.071c3.334-.192,6.687-.091,10.021-.053,1.3-.155,1.28,2.208,0,2.059-3.2.069-6.407.069-9.605,0C92.968,87.193,92.611,85.476,93.587,85.071Z" transform="translate(-45.498 -37.305)"/>
    <path id="Path_507" data-name="Path 507" class="cls-1" d="M13.577,89.075c4.155-.229,8.325-.011,12.49-.1.8.091,1.855-.256,2.353.667.193.688-.266,1.515-.957,1.44-4.025.107-8.054-.005-12.079.048-.807-.091-1.86.251-2.363-.667A1.217,1.217,0,0,1,13.577,89.075Z" transform="translate(-4.138 -39.175)"/>
    <path id="Path_508" data-name="Path 508" class="cls-1" d="M57.589,93.071c3.334-.192,6.687-.091,10.026-.053,1.285-.144,1.285,2.208,0,2.059q-4.805.1-9.615,0C56.966,95.193,56.623,93.476,57.589,93.071Z" transform="translate(-26.895 -41.038)"/>
    <path id="Path_509" data-name="Path 509" class="cls-1" d="M93.593,93.071c3.329-.192,6.677-.091,10.016-.053,1.295-.16,1.285,2.208,0,2.059-3.2.069-6.407.069-9.605,0C92.965,95.193,92.617,93.476,93.593,93.071Z" transform="translate(-45.5 -41.038)"/>
    <path id="Path_510" data-name="Path 510" class="cls-1" d="M13.593,97.072c4.619-.192,9.262-.085,13.886-.053,1.285-.144,1.285,2.208,0,2.059q-6.74.1-13.481,0C12.965,99.195,12.617,97.478,13.593,97.072Z" transform="translate(-4.153 -42.906)"/>
    <path id="Path_511" data-name="Path 511" class="cls-1" d="M57.592,101.077c3.329-.2,6.682-.1,10.021-.059,1.285-.149,1.285,2.2,0,2.059q-4.805.1-9.61,0C56.974,103.2,56.606,101.455,57.592,101.077Z" transform="translate(-26.893 -44.772)"/>
    <path id="Path_512" data-name="Path 512" class="cls-1" d="M93.6,101.074c3.329-.208,6.677-.091,10.016-.059,1.28-.144,1.29,2.208,0,2.059q-4.805.1-9.615,0C92.958,103.208,92.629,101.464,93.6,101.074Z" transform="translate(-45.502 -44.77)"/>
  </g>
</svg>
